<svg xmlns="http://www.w3.org/2000/svg" xmlns:xlink="http://www.w3.org/1999/xlink" version="1.1" x="0px" y="0px" viewBox="0 0 100 125" fill="#086688" enable-background="new 0 0 100 100" xml:space="preserve"><path d="M29.107,85.357c-4.604,0-8.036-5.242-8.036-9.731V17.857H19.37c-4.388,0-7.941,3.491-7.941,7.8v61.546  c0,4.307,3.553,7.797,7.941,7.797h48.402c4.382,0,7.941-3.49,7.941-7.797v-1.846H29.107z"/><path d="M65.802,28.417V5H32.227c-4.385,0-7.941,3.491-7.941,7.8v61.545c0,4.307,3.557,7.797,7.941,7.797H80.63  c4.382,0,7.941-3.49,7.941-7.797V28.401L65.802,28.417z M69.819,7.756v16.53l16.071-0.013L69.819,7.756z"/></svg>