<svg xmlns="http://www.w3.org/2000/svg" xmlns:xlink="http://www.w3.org/1999/xlink" version="1.1" x="0px" y="0px" viewBox="0 0 100 125" fill="#fff" style="enable-background:new 0 0 100 100;" xml:space="preserve"><path d="M27.62,25.484H12.703c-1.637,0-2.965-1.326-2.965-2.964s1.328-2.966,2.965-2.966H27.62c1.637,0,2.965,1.328,2.965,2.966  S29.256,25.484,27.62,25.484z"/><path d="M27.62,43.806H12.703c-1.637,0-2.965-1.328-2.965-2.966c0-1.638,1.328-2.964,2.965-2.964H27.62  c1.637,0,2.965,1.326,2.965,2.964C30.585,42.478,29.256,43.806,27.62,43.806z"/><path d="M27.62,62.125H12.703c-1.637,0-2.965-1.328-2.965-2.966s1.328-2.964,2.965-2.964H27.62c1.637,0,2.965,1.326,2.965,2.964  S29.256,62.125,27.62,62.125z"/><path d="M27.62,80.443H12.703c-1.637,0-2.965-1.326-2.965-2.963c0-1.641,1.328-2.967,2.965-2.967H27.62  c1.637,0,2.965,1.326,2.965,2.967C30.584,79.117,29.256,80.443,27.62,80.443z"/><path d="M86.734,7.5H23.819c-1.948,0-3.527,1.58-3.527,3.528v5.803h7.328c3.142,0,5.689,2.548,5.689,5.689  c0,3.143-2.548,5.688-5.689,5.688h-7.328v6.941h7.328c3.142,0,5.689,2.548,5.689,5.689c0,3.143-2.548,5.69-5.689,5.69h-7.328v6.939  h7.328c3.142,0,5.689,2.547,5.689,5.689c0,3.144-2.548,5.688-5.689,5.688h-7.328v6.941h7.328c3.142,0,5.689,2.549,5.689,5.691  c0,3.142-2.548,5.688-5.689,5.688h-7.328v5.803c0,1.949,1.579,3.529,3.527,3.529h62.916c1.951,0,3.527-1.58,3.527-3.529V11.028  C90.262,9.08,88.686,7.5,86.734,7.5z M59.926,26.014c6.398,0,11.584,5.188,11.584,11.583c0,6.396-5.186,11.583-11.584,11.583  c-6.396,0-11.582-5.187-11.582-11.583S53.529,26.014,59.926,26.014z M78.041,73.279H41.813v-8.396  c0-6.515,5.333-11.848,11.849-11.848h1.975l1.229,1.259l3.061,3.135l3.063-3.135l1.23-1.259h1.973c6.518,0,11.85,5.333,11.85,11.848  v8.396H78.041z"/></svg>