<svg xmlns="http://www.w3.org/2000/svg" xmlns:xlink="http://www.w3.org/1999/xlink" 
version="1.1" x="0px" y="0px" viewBox="0 0 100 125" 
enable-background="new 0 0 100 100" 
fill="#086688"
xml:space="preserve"><g><g><circle fill-rule="evenodd"  fill="#086688"
clip-rule="evenodd" cx="50.064" cy="40.13" r="5.559"/>

<path fill-rule="evenodd"
 clip-rule="evenodd" 
 d="M81.499,12.83H18.501c-3.479,0-6.299,2.821-6.299,6.3v69.3l15.119-12.6h54.178  
   c3.479,0,6.3-2.82,6.3-6.3v-50.4C87.799,15.651,84.979,12.83,81.499,12.83z 
   M59.626,46.969l-9.562,13.329l-9.569-13.343h0.009   
    c-1.377-1.925-2.196-4.277-2.196-6.825c0-6.493,5.264-11.757,11.757-11.757s11.757,5.264,11.757,11.757
       c0,2.554-0.823,4.911-2.207,6.839H59.626z"/></g></g></svg>