<svg xmlns="http://www.w3.org/2000/svg" xmlns:xlink="http://www.w3.org/1999/xlink" version="1.1" x="0px" y="0px" fill="#fff" viewBox="0 0 32 40" style="enable-background:new 0 0 32 32;" xml:space="preserve"><g><path d="M16,32C7.178,32,0,24.822,0,16S7.178,0,16,0s16,7.178,16,16S24.822,32,16,32z M16,2C8.28,2,2,8.28,2,16s6.28,14,14,14   s14-6.28,14-14S23.72,2,16,2z"/><path d="M22,12H10c-0.552,0-1-0.448-1-1s0.448-1,1-1h12c0.553,0,1,0.448,1,1S22.553,12,22,12z"/><path d="M22,17H10c-0.552,0-1-0.448-1-1s0.448-1,1-1h12c0.553,0,1,0.448,1,1S22.553,17,22,17z"/><path d="M22,22H10c-0.552,0-1-0.447-1-1s0.448-1,1-1h12c0.553,0,1,0.447,1,1S22.553,22,22,22z"/></g></svg>