<svg xmlns="http://www.w3.org/2000/svg" xmlns:xlink="http://www.w3.org/1999/xlink" xmlns:sketch="http://www.bohemiancoding.com/sketch/ns" viewBox="0 0 60 75" version="1.1" x="0px" y="0px"><title>38 - Whatsapp (Solid)</title><desc>Created with Sketch.</desc><g stroke="none" stroke-width="1" fill="none" fill-rule="evenodd" sketch:type="MSPage"><g sketch:type="MSLayerGroup" transform="translate(-1.000000, 0.000000)" fill="#000000"><path d="M31.5,0 C15.233,0 2,13.233 2,29.5 C2,34.646 3.346,39.702 5.896,44.15 L1.051,58.684 C0.935,59.032 1.02,59.416 1.271,59.684 C1.462,59.889 1.728,60 2,60 C2.085,60 2.17,59.989 2.254,59.967 L18.122,55.792 C22.243,57.892 26.86,59 31.5,59 C47.767,59 61,45.767 61,29.5 C61,13.233 47.767,0 31.5,0 L31.5,0 Z M49.908,42.894 L48.15,44.653 C45.93,46.874 43.453,48 40.79,48 C40.789,48 40.79,48 40.789,48 C37.199,48 33.328,45.95 29.286,41.907 L19.093,31.714 C15.904,28.526 13.945,25.429 13.27,22.508 C12.45,18.961 13.485,15.712 16.347,12.851 L18.105,11.092 C19.236,9.961 21.066,9.683 22.483,10.433 C25.145,11.842 27.903,16.458 28.209,16.979 C28.761,17.946 28.93,18.946 28.692,19.804 C28.51,20.459 28.1,20.993 27.503,21.355 C26.696,22.031 25.748,22.873 25.582,23.088 C24.566,24.587 24.682,25.738 25.991,27.048 L33.953,35.01 C35.273,36.331 36.403,36.439 37.926,35.408 C38.127,35.251 38.969,34.304 39.645,33.496 C40.15,32.661 40.977,32.204 41.983,32.204 C42.642,32.204 43.343,32.404 44.01,32.784 C44.542,33.097 49.159,35.856 50.567,38.517 C51.337,39.972 51.073,41.73 49.908,42.894 L49.908,42.894 Z" sketch:type="MSShapeGroup"/></g></g><text x="0" y="75" fill="#000000" font-size="5px" font-weight="bold" font-family="'Helvetica Neue', Helvetica, Arial-Unicode, Arial, Sans-serif">Created by Oliviu Stoian</text><text x="0" y="80" fill="#000000" font-size="5px" font-weight="bold" font-family="'Helvetica Neue', Helvetica, Arial-Unicode, Arial, Sans-serif">from the Noun Project</text></svg>